<svg xmlns="http://www.w3.org/2000/svg" xmlns:xlink="http://www.w3.org/1999/xlink" width="27" height="25" viewBox="0 0 27 25"><defs><path id="mwpwa" d="M438 35h20a2 2 0 1 1 0 4h-20a2 2 0 0 1 0-4z"/><path id="mwpwb" d="M438 44h20a2 2 0 1 1 0 4h-20a2 2 0 1 1 0-4z"/><path id="mwpwc" d="M438 53h20a2 2 0 0 1 0 4h-20a2 2 0 1 1 0-4z"/></defs><g><g transform="translate(-434 -33)"><use fill="#fff" xlink:href="#mwpwa"/></g><g transform="translate(-434 -33)"><use fill="#fff" xlink:href="#mwpwb"/></g><g transform="translate(-434 -33)"><use fill="#fff" xlink:href="#mwpwc"/></g></g></svg>